<?xml version="1.0" standalone="no"?><!DOCTYPE svg PUBLIC "-//W3C//DTD SVG 1.1//EN" "http://www.w3.org/Graphics/SVG/1.1/DTD/svg11.dtd"><svg t="1609123994272" class="icon" viewBox="0 0 1024 1024" version="1.1" xmlns="http://www.w3.org/2000/svg" p-id="2511" data-spm-anchor-id="a313x.7781069.0.i3" xmlns:xlink="http://www.w3.org/1999/xlink" width="16" height="16"><defs><style type="text/css"></style></defs><path d="M302.545455 896c18.618182 0 34.909091 16.290909 34.90909 34.909091s-16.290909 34.909091-34.90909 34.909091H186.181818c-69.818182 0-128-58.181818-128-128v-116.363637c0-18.618182 16.290909-34.909091 34.909091-34.90909s34.909091 16.290909 34.909091 34.90909v116.363637c0 32.581818 25.6 58.181818 58.181818 58.181818h116.363637zM896 721.454545c0-18.618182 16.290909-34.909091 34.909091-34.90909s34.909091 16.290909 34.909091 34.90909v116.363637c0 69.818182-58.181818 128-128 128h-116.363637c-18.618182 0-34.909091-16.290909-34.90909-34.909091s16.290909-34.909091 34.90909-34.909091h116.363637c32.581818 0 58.181818-25.6 58.181818-58.181818v-116.363637zM721.454545 128c-18.618182 0-34.909091-16.290909-34.90909-34.909091s16.290909-34.909091 34.90909-34.909091h116.363637c69.818182 0 128 58.181818 128 128v139.636364c0 18.618182-16.290909 34.909091-34.909091 34.909091s-34.909091-16.290909-34.909091-34.909091V186.181818c0-32.581818-25.6-58.181818-58.181818-58.181818h-116.363637zM128 302.545455c0 18.618182-16.290909 34.909091-34.909091 34.90909s-34.909091-16.290909-34.909091-34.90909V186.181818C58.181818 116.363636 116.363636 58.181818 186.181818 58.181818h116.363637c18.618182 0 34.909091 16.290909 34.90909 34.909091s-16.290909 34.909091-34.90909 34.909091H186.181818C153.6 128 128 153.6 128 186.181818v116.363637zM279.272727 546.909091c-18.618182 0-34.909091-16.290909-34.909091-34.909091s16.290909-34.909091 34.909091-34.909091h465.454546c18.618182 0 34.909091 16.290909 34.909091 34.909091s-16.290909 34.909091-34.909091 34.909091H279.272727z" fill="#ffffff" p-id="2512"></path></svg>